<svg width="192" height="263" viewBox="0 0 192 263" fill="none" xmlns="http://www.w3.org/2000/svg">
<path d="M80.8895 262.316C69.0513 262.316 62.4758 257.498 59.0533 253.455C57.0138 251.052 55.6776 248.508 54.822 246.07C50.3797 244.711 46.5235 242.273 43.5698 238.874C38.3071 232.814 36.3732 224.516 37.8266 214.189C38.2485 211.201 38.858 208.27 39.6433 205.422C38.6822 204.731 37.7445 204.016 36.8068 203.289L36.3028 203.793L28.0161 195.506C-9.3387 158.151 -9.3387 97.3663 28.0161 60.0115C34.1696 53.8579 41.0967 48.6069 48.6568 44.3639L46.1836 0L75.5095 19.0935L93.302 0.785306L111.094 19.0935L140.409 0L138.088 41.8205C147.523 46.4386 156.056 52.5452 163.511 59.9997C181.608 78.097 191.571 102.16 191.571 127.747C191.571 153.334 181.608 177.397 163.511 195.494C159.444 199.562 155.025 203.254 150.289 206.524C150.946 209.02 151.45 211.576 151.813 214.178C153.267 224.504 151.333 232.814 146.07 238.862C143.116 242.261 139.26 244.699 134.818 246.059C133.962 248.508 132.626 251.052 130.586 253.443C127.152 257.487 120.577 262.304 108.75 262.304H80.8895V262.316Z" fill="white" style="fill:white;fill-opacity:1;"/>
<path d="M121.374 115.674C116.533 115.674 112.606 119.601 112.606 124.442C112.606 129.282 116.533 133.209 121.374 133.209C126.215 133.209 130.141 129.282 130.141 124.442C130.141 119.601 126.215 115.674 121.374 115.674ZM72.4034 124.442C72.4034 119.601 68.4769 115.674 63.6361 115.674C58.7954 115.674 54.8688 119.601 54.8688 124.442C54.8688 129.282 58.7954 133.209 63.6361 133.209C68.4769 133.209 72.4034 129.282 72.4034 124.442ZM155.247 67.6183C147.453 59.8239 138.475 53.9048 128.899 49.8141L128.477 57.4093L101.952 54.8073H125.617L127.457 21.7658L109.43 33.4985L93.3254 16.925L77.2208 33.4985L59.1939 21.7658L60.7997 50.6581C51.9269 54.7018 43.605 60.3279 36.3145 67.6183C3.47231 100.461 3.47231 153.697 36.3145 186.539C41.671 191.896 47.5784 196.362 53.8491 199.972C51.7511 204.496 50.2273 209.56 49.442 215.139C46.3008 237.455 65.2185 234.807 65.2185 234.807C65.2185 234.807 62.7336 249.915 80.9012 249.915H108.762C126.941 249.915 124.445 234.807 124.445 234.807C124.445 234.807 143.362 237.444 140.221 215.139C139.483 209.899 138.088 205.129 136.177 200.816C143.011 197.065 149.434 192.318 155.224 186.539C188.066 153.697 188.066 100.461 155.224 67.6183H155.247ZM134.021 165.324C112.899 186.446 78.6625 186.446 57.5412 165.324C36.42 144.203 36.42 109.966 57.5412 88.845C69.8131 76.5732 86.5155 71.4511 102.503 73.4437C99.2914 74.5103 96.5135 76.9248 95.3063 81.1678C92.5284 90.9783 86.2342 93.6272 78.9906 94.4125C78.9906 94.4125 103.886 99.7573 115.173 87.2158C118.666 83.3362 118.526 79.7613 116.533 77.1475C122.886 79.7847 128.84 83.6761 134.009 88.845C155.13 109.966 155.13 144.203 134.009 165.324H134.021ZM112.243 143.277C103.241 136.702 98.4709 137.417 94.6147 142.785C88.7542 135.284 82.5304 138.741 76.0487 144.496C70.0944 149.794 62.593 142.785 62.593 142.785C62.593 142.785 67.7971 153.721 78.2053 154.131C88.637 154.541 89.9263 147.016 94.2279 147.239C98.4475 147.462 102.96 154.131 111.247 154.131C121.116 154.131 127.058 143.945 127.058 143.945C127.058 143.945 121.843 150.31 112.231 143.277H112.243Z" fill="#212121" style="fill:#212121;fill:color(display-p3 0.1294 0.1294 0.1294);fill-opacity:1;"/>
<path d="M77.3907 206.946H77.4129L79.9072 203.606H85.4078L81.9337 208.26L85.9868 214.74H80.3303L78.4151 211.489H77.3907V214.74H72.3799V198.929H77.3907V206.946ZM89.1599 202.648C87.6456 202.648 86.3985 201.512 86.3985 199.976C86.3985 198.439 87.6456 197.303 89.1599 197.303C90.652 197.303 91.9214 198.439 91.9214 199.976C91.9214 201.512 90.652 202.648 89.1599 202.648ZM91.6764 203.606V214.74H86.6657V203.606H91.6764ZM101.451 203.271C104.012 203.271 105.727 204.986 105.727 207.57V214.74H100.716V209.128C100.716 207.77 100.137 207.748 99.7141 207.748C99.6473 207.748 99.3133 207.748 98.3557 207.815V214.74H93.3449V203.828C98.4893 203.294 99.8923 203.271 101.451 203.271ZM112.538 203.271C114.008 203.271 114.877 203.294 119.977 203.828V214.74C119.977 218.638 117.571 220.597 113.051 220.597C111.625 220.597 110.378 220.419 108.819 219.929L109.398 216.455C110.668 216.7 111.648 216.856 112.828 216.856C114.387 216.856 114.899 216.277 114.966 214.985C114.12 215.052 113.452 215.075 112.561 215.075C110.356 215.075 106.949 213.538 106.949 209.106C107.105 205.61 109.309 203.271 112.538 203.271ZM113.607 207.08C112.628 207.08 111.714 207.815 111.714 209.128C111.714 210.287 112.605 211.044 113.63 211.044C113.897 211.044 114.298 210.999 114.966 210.932V207.169C114.164 207.102 113.875 207.08 113.607 207.08Z" fill="white" style="fill:white;fill-opacity:1;"/>
<mask id="path-4-outside-1_2017_193" maskUnits="userSpaceOnUse" x="69.317" y="218.01" width="52" height="14" fill="black">
<rect fill="white" x="69.317" y="218.01" width="52" height="14"/>
<path d="M79.4008 224.025C79.4008 225.725 78.5803 227.038 77.2558 227.706L79.1078 229.944H76.7401L75.2633 228.186H75.1109C72.5909 228.186 70.8327 226.522 70.8327 224.025C70.8327 221.529 72.5909 219.864 75.1109 219.864C77.6309 219.864 79.4008 221.529 79.4008 224.025ZM72.8722 224.025C72.8722 225.432 73.8099 226.369 75.1109 226.369C76.4002 226.369 77.3379 225.432 77.3379 224.025C77.3379 222.619 76.4002 221.693 75.1109 221.693C73.8099 221.693 72.8722 222.619 72.8722 224.025ZM87.9515 220.04V224.412C87.9515 226.78 86.5098 228.186 84.2125 228.186C81.9269 228.186 80.497 226.78 80.497 224.412V220.04H82.4895V224.412C82.4895 225.631 83.1576 226.334 84.2125 226.334C85.2674 226.334 85.959 225.631 85.959 224.412V220.04H87.9515ZM93.4021 219.864C95.9221 219.864 97.6802 221.529 97.6802 224.025C97.6802 226.522 95.9221 228.186 93.4021 228.186C90.882 228.186 89.1239 226.522 89.1239 224.025C89.1239 221.529 90.882 219.864 93.4021 219.864ZM93.4021 226.369C94.7031 226.369 95.6408 225.432 95.6408 224.025C95.6408 222.619 94.7031 221.693 93.4021 221.693C92.101 221.693 91.1633 222.619 91.1633 224.025C91.1633 225.432 92.101 226.369 93.4021 226.369ZM102.551 221.81V228.01H100.57V221.81H97.898V220.04H105.224V221.81H102.551ZM107.994 223.181H111.522V224.869H107.994V226.287H112.05V228.01H106.025V220.04H112.05V221.763H107.994V223.181ZM119.739 220.462L119.317 222.173C118.204 221.833 117.208 221.646 116.528 221.646C115.836 221.646 115.414 221.857 115.414 222.349C115.414 222.888 116.059 222.982 117.184 223.216C118.825 223.568 119.915 224.084 119.915 225.619C119.915 227.319 118.591 228.186 116.586 228.186C115.567 228.186 114.277 227.963 113.035 227.495L113.48 225.748C114.758 226.229 115.801 226.416 116.504 226.428C117.348 226.44 117.794 226.205 117.794 225.748C117.794 225.104 116.891 224.998 115.883 224.787C114.102 224.412 113.269 223.838 113.269 222.443C113.269 220.872 114.523 219.923 116.516 219.923C117.618 219.923 118.907 220.169 119.739 220.462Z"/>
</mask>
<path d="M79.4008 224.025C79.4008 225.725 78.5803 227.038 77.2558 227.706L79.1078 229.944H76.7401L75.2633 228.186H75.1109C72.5909 228.186 70.8327 226.522 70.8327 224.025C70.8327 221.529 72.5909 219.864 75.1109 219.864C77.6309 219.864 79.4008 221.529 79.4008 224.025ZM72.8722 224.025C72.8722 225.432 73.8099 226.369 75.1109 226.369C76.4002 226.369 77.3379 225.432 77.3379 224.025C77.3379 222.619 76.4002 221.693 75.1109 221.693C73.8099 221.693 72.8722 222.619 72.8722 224.025ZM87.9515 220.04V224.412C87.9515 226.78 86.5098 228.186 84.2125 228.186C81.9269 228.186 80.497 226.78 80.497 224.412V220.04H82.4895V224.412C82.4895 225.631 83.1576 226.334 84.2125 226.334C85.2674 226.334 85.959 225.631 85.959 224.412V220.04H87.9515ZM93.4021 219.864C95.9221 219.864 97.6802 221.529 97.6802 224.025C97.6802 226.522 95.9221 228.186 93.4021 228.186C90.882 228.186 89.1239 226.522 89.1239 224.025C89.1239 221.529 90.882 219.864 93.4021 219.864ZM93.4021 226.369C94.7031 226.369 95.6408 225.432 95.6408 224.025C95.6408 222.619 94.7031 221.693 93.4021 221.693C92.101 221.693 91.1633 222.619 91.1633 224.025C91.1633 225.432 92.101 226.369 93.4021 226.369ZM102.551 221.81V228.01H100.57V221.81H97.898V220.04H105.224V221.81H102.551ZM107.994 223.181H111.522V224.869H107.994V226.287H112.05V228.01H106.025V220.04H112.05V221.763H107.994V223.181ZM119.739 220.462L119.317 222.173C118.204 221.833 117.208 221.646 116.528 221.646C115.836 221.646 115.414 221.857 115.414 222.349C115.414 222.888 116.059 222.982 117.184 223.216C118.825 223.568 119.915 224.084 119.915 225.619C119.915 227.319 118.591 228.186 116.586 228.186C115.567 228.186 114.277 227.963 113.035 227.495L113.48 225.748C114.758 226.229 115.801 226.416 116.504 226.428C117.348 226.44 117.794 226.205 117.794 225.748C117.794 225.104 116.891 224.998 115.883 224.787C114.102 224.412 113.269 223.838 113.269 222.443C113.269 220.872 114.523 219.923 116.516 219.923C117.618 219.923 118.907 220.169 119.739 220.462Z" fill="#F6BA25" style="fill:#F6BA25;fill:color(display-p3 0.9647 0.7294 0.1451);fill-opacity:1;"/>
<path d="M77.2558 227.706L76.728 226.659L75.4163 227.321L76.3527 228.453L77.2558 227.706ZM79.1078 229.944V231.116H81.5985L80.0109 229.197L79.1078 229.944ZM76.7401 229.944L75.8426 230.698L76.1939 231.116H76.7401V229.944ZM75.2633 228.186L76.1608 227.432L75.8095 227.014H75.2633V228.186ZM79.4008 224.025H78.2287C78.2287 225.312 77.6317 226.203 76.728 226.659L77.2558 227.706L77.7837 228.752C79.5289 227.872 80.5729 226.138 80.5729 224.025H79.4008ZM77.2558 227.706L76.3527 228.453L78.2046 230.691L79.1078 229.944L80.0109 229.197L78.159 226.959L77.2558 227.706ZM79.1078 229.944V228.772H76.7401V229.944V231.116H79.1078V229.944ZM76.7401 229.944L77.6376 229.19L76.1608 227.432L75.2633 228.186L74.3658 228.94L75.8426 230.698L76.7401 229.944ZM75.2633 228.186V227.014H75.1109V228.186V229.358H75.2633V228.186ZM75.1109 228.186V227.014C74.1121 227.014 73.348 226.688 72.8407 226.199C72.3375 225.713 72.0048 224.988 72.0048 224.025H70.8327H69.6606C69.6606 225.559 70.207 226.915 71.2129 227.885C72.2147 228.852 73.5897 229.358 75.1109 229.358V228.186ZM70.8327 224.025H72.0048C72.0048 223.062 72.3375 222.338 72.8407 221.852C73.348 221.362 74.1121 221.036 75.1109 221.036V219.864V218.692C73.5897 218.692 72.2147 219.198 71.2129 220.165C70.207 221.136 69.6606 222.491 69.6606 224.025H70.8327ZM75.1109 219.864V221.036C76.11 221.036 76.8779 221.363 77.3886 221.854C77.8947 222.34 78.2287 223.065 78.2287 224.025H79.4008H80.5729C80.5729 222.489 80.0219 221.133 79.0131 220.164C78.0089 219.198 76.6318 218.692 75.1109 218.692V219.864ZM72.8722 224.025H71.7001C71.7001 224.994 72.0273 225.885 72.6614 226.54C73.2972 227.197 74.1696 227.542 75.1109 227.542V226.369V225.197C74.7511 225.197 74.5042 225.073 74.3459 224.91C74.1859 224.744 74.0443 224.463 74.0443 224.025H72.8722ZM75.1109 226.369V227.542C76.0492 227.542 76.9186 227.195 77.5516 226.538C78.1829 225.884 78.51 224.994 78.51 224.025H77.3379H76.1658C76.1658 224.463 76.024 224.745 75.8642 224.911C75.706 225.075 75.4619 225.197 75.1109 225.197V226.369ZM77.3379 224.025H78.51C78.51 223.056 78.1825 222.168 77.5487 221.515C76.9139 220.861 76.0447 220.521 75.1109 220.521V221.693V222.865C75.4664 222.865 75.7107 222.987 75.8671 223.148C76.0245 223.31 76.1658 223.588 76.1658 224.025H77.3379ZM75.1109 221.693V220.521C74.1741 220.521 73.3019 220.859 72.6644 221.513C72.0277 222.166 71.7001 223.056 71.7001 224.025H72.8722H74.0443C74.0443 223.588 74.1855 223.311 74.343 223.15C74.4995 222.989 74.7467 222.865 75.1109 222.865V221.693ZM87.9515 220.04H89.1236V218.868H87.9515V220.04ZM80.497 220.04V218.868H79.3249V220.04H80.497ZM82.4895 220.04H83.6616V218.868H82.4895V220.04ZM85.959 220.04V218.868H84.7869V220.04H85.959ZM87.9515 220.04H86.7794V224.412H87.9515H89.1236V220.04H87.9515ZM87.9515 224.412H86.7794C86.7794 225.356 86.4969 225.976 86.1147 226.358C85.7321 226.741 85.1206 227.014 84.2125 227.014V228.186V229.358C85.6018 229.358 86.8598 228.928 87.7723 228.016C88.6853 227.103 89.1236 225.836 89.1236 224.412H87.9515ZM84.2125 228.186V227.014C83.3122 227.014 82.7077 226.742 82.3293 226.361C81.9503 225.979 81.6691 225.359 81.6691 224.412H80.497H79.3249C79.3249 225.833 79.7586 227.099 80.666 228.013C81.574 228.927 82.8273 229.358 84.2125 229.358V228.186ZM80.497 224.412H81.6691V220.04H80.497H79.3249V224.412H80.497ZM80.497 220.04V221.212H82.4895V220.04V218.868H80.497V220.04ZM82.4895 220.04H81.3174V224.412H82.4895H83.6616V220.04H82.4895ZM82.4895 224.412H81.3174C81.3174 225.229 81.543 226.02 82.0889 226.619C82.6466 227.232 83.414 227.506 84.2125 227.506V226.334V225.162C83.9562 225.162 83.8621 225.085 83.822 225.041C83.7701 224.984 83.6616 224.814 83.6616 224.412H82.4895ZM84.2125 226.334V227.506C85.0095 227.506 85.7781 227.233 86.3402 226.628C86.8939 226.032 87.1311 225.239 87.1311 224.412H85.959H84.7869C84.7869 224.804 84.6783 224.973 84.6224 225.033C84.5751 225.084 84.4704 225.162 84.2125 225.162V226.334ZM85.959 224.412H87.1311V220.04H85.959H84.7869V224.412H85.959ZM85.959 220.04V221.212H87.9515V220.04V218.868H85.959V220.04ZM93.4021 219.864V221.036C94.4009 221.036 95.1649 221.362 95.6722 221.852C96.1754 222.338 96.5081 223.062 96.5081 224.025H97.6802H98.8523C98.8523 222.491 98.3059 221.136 97.3001 220.165C96.2983 219.198 94.9232 218.692 93.4021 218.692V219.864ZM97.6802 224.025H96.5081C96.5081 224.988 96.1754 225.713 95.6722 226.199C95.1649 226.688 94.4009 227.014 93.4021 227.014V228.186V229.358C94.9232 229.358 96.2983 228.852 97.3001 227.885C98.3059 226.915 98.8523 225.559 98.8523 224.025H97.6802ZM93.4021 228.186V227.014C92.4032 227.014 91.6392 226.688 91.1319 226.199C90.6287 225.713 90.296 224.988 90.296 224.025H89.1239H87.9518C87.9518 225.559 88.4982 226.915 89.504 227.885C90.5058 228.852 91.8809 229.358 93.4021 229.358V228.186ZM89.1239 224.025H90.296C90.296 223.062 90.6287 222.338 91.1319 221.852C91.6392 221.362 92.4032 221.036 93.4021 221.036V219.864V218.692C91.8809 218.692 90.5058 219.198 89.504 220.165C88.4982 221.136 87.9518 222.491 87.9518 224.025H89.1239ZM93.4021 226.369V227.542C94.3433 227.542 95.2157 227.197 95.8515 226.54C96.4857 225.885 96.8129 224.994 96.8129 224.025H95.6408H94.4687C94.4687 224.463 94.327 224.744 94.1671 224.91C94.0088 225.073 93.7618 225.197 93.4021 225.197V226.369ZM95.6408 224.025H96.8129C96.8129 223.056 96.4852 222.166 95.8486 221.513C95.211 220.859 94.3389 220.521 93.4021 220.521V221.693V222.865C93.7662 222.865 94.0135 222.989 94.17 223.15C94.3275 223.311 94.4687 223.588 94.4687 224.025H95.6408ZM93.4021 221.693V220.521C92.4652 220.521 91.5931 220.859 90.9555 221.513C90.3189 222.166 89.9912 223.056 89.9912 224.025H91.1633H92.3354C92.3354 223.588 92.4767 223.311 92.6341 223.15C92.7906 222.989 93.0379 222.865 93.4021 222.865V221.693ZM91.1633 224.025H89.9912C89.9912 224.994 90.3184 225.885 90.9526 226.54C91.5884 227.197 92.4608 227.542 93.4021 227.542V226.369V225.197C93.0423 225.197 92.7953 225.073 92.637 224.91C92.4771 224.744 92.3354 224.463 92.3354 224.025H91.1633ZM102.551 221.81V220.638H101.379V221.81H102.551ZM102.551 228.01V229.182H103.723V228.01H102.551ZM100.57 228.01H99.3983V229.182H100.57V228.01ZM100.57 221.81H101.742V220.638H100.57V221.81ZM97.898 221.81H96.7259V222.982H97.898V221.81ZM97.898 220.04V218.868H96.7259V220.04H97.898ZM105.224 220.04H106.396V218.868H105.224V220.04ZM105.224 221.81V222.982H106.396V221.81H105.224ZM102.551 221.81H101.379V228.01H102.551H103.723V221.81H102.551ZM102.551 228.01V226.838H100.57V228.01V229.182H102.551V228.01ZM100.57 228.01H101.742V221.81H100.57H99.3983V228.01H100.57ZM100.57 221.81V220.638H97.898V221.81V222.982H100.57V221.81ZM97.898 221.81H99.0701V220.04H97.898H96.7259V221.81H97.898ZM97.898 220.04V221.212H105.224V220.04V218.868H97.898V220.04ZM105.224 220.04H104.051V221.81H105.224H106.396V220.04H105.224ZM105.224 221.81V220.638H102.551V221.81V222.982H105.224V221.81ZM107.994 223.181H106.822V224.353H107.994V223.181ZM111.522 223.181H112.694V222.009H111.522V223.181ZM111.522 224.869V226.041H112.694V224.869H111.522ZM107.994 224.869V223.697H106.822V224.869H107.994ZM107.994 226.287H106.822V227.459H107.994V226.287ZM112.05 226.287H113.222V225.115H112.05V226.287ZM112.05 228.01V229.182H113.222V228.01H112.05ZM106.025 228.01H104.853V229.182H106.025V228.01ZM106.025 220.04V218.868H104.853V220.04H106.025ZM112.05 220.04H113.222V218.868H112.05V220.04ZM112.05 221.763V222.935H113.222V221.763H112.05ZM107.994 221.763V220.591H106.822V221.763H107.994ZM107.994 223.181V224.353H111.522V223.181V222.009H107.994V223.181ZM111.522 223.181H110.35V224.869H111.522H112.694V223.181H111.522ZM111.522 224.869V223.697H107.994V224.869V226.041H111.522V224.869ZM107.994 224.869H106.822V226.287H107.994H109.166V224.869H107.994ZM107.994 226.287V227.459H112.05V226.287V225.115H107.994V226.287ZM112.05 226.287H110.877V228.01H112.05H113.222V226.287H112.05ZM112.05 228.01V226.838H106.025V228.01V229.182H112.05V228.01ZM106.025 228.01H107.197V220.04H106.025H104.853V228.01H106.025ZM106.025 220.04V221.212H112.05V220.04V218.868H106.025V220.04ZM112.05 220.04H110.877V221.763H112.05H113.222V220.04H112.05ZM112.05 221.763V220.591H107.994V221.763V222.935H112.05V221.763ZM107.994 221.763H106.822V223.181H107.994H109.166V221.763H107.994ZM119.739 220.462L120.877 220.743L121.132 219.71L120.129 219.356L119.739 220.462ZM119.317 222.173L118.975 223.294L120.159 223.656L120.455 222.454L119.317 222.173ZM117.184 223.216L117.43 222.07L117.423 222.069L117.184 223.216ZM113.035 227.495L111.899 227.205L111.64 228.221L112.621 228.591L113.035 227.495ZM113.48 225.748L113.893 224.651L112.668 224.19L112.345 225.459L113.48 225.748ZM116.504 226.428L116.485 227.6L116.488 227.6L116.504 226.428ZM115.883 224.787L115.642 225.934L115.643 225.934L115.883 224.787ZM119.739 220.462L118.601 220.181L118.179 221.893L119.317 222.173L120.455 222.454L120.877 220.743L119.739 220.462ZM119.317 222.173L119.66 221.052C118.501 220.699 117.377 220.474 116.528 220.474V221.646V222.818C117.039 222.818 117.907 222.968 118.975 223.294L119.317 222.173ZM116.528 221.646V220.474C116.099 220.474 115.571 220.533 115.112 220.806C114.562 221.133 114.242 221.693 114.242 222.349H115.414H116.586C116.586 222.398 116.574 222.497 116.511 222.609C116.448 222.721 116.365 222.788 116.311 222.82C116.264 222.848 116.249 222.845 116.293 222.836C116.335 222.827 116.411 222.818 116.528 222.818V221.646ZM115.414 222.349H114.242C114.242 222.746 114.372 223.136 114.654 223.455C114.905 223.74 115.213 223.894 115.444 223.986C115.868 224.155 116.457 224.262 116.945 224.364L117.184 223.216L117.423 222.069C117.125 222.007 116.898 221.962 116.695 221.915C116.491 221.869 116.376 221.834 116.311 221.808C116.24 221.78 116.316 221.795 116.411 221.903C116.464 221.963 116.513 222.041 116.546 222.132C116.578 222.221 116.586 222.298 116.586 222.349H115.414ZM117.184 223.216L116.939 224.363C117.739 224.534 118.198 224.71 118.454 224.905C118.618 225.031 118.743 225.187 118.743 225.619H119.915H121.087C121.087 224.516 120.667 223.646 119.876 223.042C119.177 222.508 118.27 222.25 117.43 222.07L117.184 223.216ZM119.915 225.619H118.743C118.743 226.125 118.567 226.405 118.306 226.597C117.996 226.826 117.442 227.014 116.586 227.014V228.186V229.358C117.735 229.358 118.845 229.113 119.698 228.483C120.601 227.817 121.087 226.813 121.087 225.619H119.915ZM116.586 228.186V227.014C115.718 227.014 114.568 226.821 113.449 226.398L113.035 227.495L112.621 228.591C113.986 229.106 115.416 229.358 116.586 229.358V228.186ZM113.035 227.495L114.171 227.784L114.616 226.038L113.48 225.748L112.345 225.459L111.899 227.205L113.035 227.495ZM113.48 225.748L113.068 226.845C114.436 227.36 115.615 227.585 116.485 227.6L116.504 226.428L116.524 225.256C115.987 225.247 115.079 225.097 113.893 224.651L113.48 225.748ZM116.504 226.428L116.488 227.6C116.986 227.607 117.54 227.55 118.012 227.301C118.572 227.006 118.966 226.457 118.966 225.748H117.794H116.622C116.622 225.664 116.645 225.541 116.723 225.418C116.798 225.301 116.884 225.245 116.919 225.227C116.949 225.211 116.94 225.223 116.864 225.236C116.791 225.248 116.679 225.258 116.521 225.256L116.504 226.428ZM117.794 225.748H118.966C118.966 225.275 118.785 224.858 118.48 224.541C118.208 224.26 117.881 224.104 117.632 224.009C117.167 223.833 116.536 223.726 116.123 223.64L115.883 224.787L115.643 225.934C115.938 225.996 116.126 226.03 116.356 226.081C116.567 226.127 116.707 226.165 116.801 226.201C116.903 226.24 116.865 226.244 116.794 226.17C116.752 226.127 116.704 226.062 116.668 225.975C116.633 225.888 116.622 225.808 116.622 225.748H117.794ZM115.883 224.787L116.125 223.64C115.273 223.461 114.863 223.27 114.666 223.103C114.55 223.005 114.441 222.871 114.441 222.443H113.269H112.097C112.097 223.41 112.405 224.26 113.151 224.892C113.815 225.454 114.712 225.738 115.642 225.934L115.883 224.787ZM113.269 222.443H114.441C114.441 222.004 114.599 221.724 114.861 221.522C115.158 221.294 115.69 221.095 116.516 221.095V219.923V218.751C115.35 218.751 114.258 219.027 113.43 219.666C112.566 220.331 112.097 221.311 112.097 222.443H113.269ZM116.516 219.923V221.095C117.48 221.095 118.638 221.317 119.35 221.568L119.739 220.462L120.129 219.356C119.176 219.021 117.755 218.751 116.516 218.751V219.923Z" fill="#212121" style="fill:#212121;fill:color(display-p3 0.1294 0.1294 0.1294);fill-opacity:1;" mask="url(#path-4-outside-1_2017_193)"/>
<rect x="49.3091" y="112.707" width="86.878" height="46.9611" rx="23.4805" fill="white" style="fill:white;fill-opacity:1;"/>
<path fill-rule="evenodd" clip-rule="evenodd" d="M124.584 147.927C129.341 147.927 132.7 152.582 130.239 156.652C123.189 168.311 110.391 176.104 95.772 176.104C81.1533 176.104 68.3554 168.311 61.305 156.652C58.8436 152.582 62.2033 147.927 66.9598 147.927H124.584Z" fill="#212121" style="fill:#212121;fill:color(display-p3 0.1294 0.1294 0.1294);fill-opacity:1;"/>
<path fill-rule="evenodd" clip-rule="evenodd" d="M60.3773 119.751C65.2391 119.751 69.4107 122.706 71.1937 126.918C72.2047 129.307 70.015 131.491 67.4214 131.491H53.3332C50.7396 131.491 48.5499 129.307 49.5609 126.918C51.3439 122.706 55.5155 119.751 60.3773 119.751Z" fill="#212121" style="fill:#212121;fill:color(display-p3 0.1294 0.1294 0.1294);fill-opacity:1;"/>
<path fill-rule="evenodd" clip-rule="evenodd" d="M133.167 119.751C138.029 119.751 142.2 122.706 143.983 126.918C144.994 129.307 142.805 131.491 140.211 131.491H126.123C123.529 131.491 121.34 129.307 122.351 126.918C124.134 122.706 128.305 119.751 133.167 119.751Z" fill="#212121" style="fill:#212121;fill:color(display-p3 0.1294 0.1294 0.1294);fill-opacity:1;"/>
</svg>
